<svg width="75" height="73" viewBox="0 0 75 73" fill="none" xmlns="http://www.w3.org/2000/svg">
<g clip-path="url(#clip0_4695_28446)">
<path d="M36.8387 0.59082V44.9378C36.8077 44.9735 36.7965 44.9992 36.7782 45.0035C36.7584 45.0092 36.7303 45.0035 36.7092 44.9935C36.5825 44.9321 36.4529 44.8764 36.3318 44.8051C31.4548 41.9097 26.5792 39.0129 21.6895 36.1075V9.04134C22.171 8.75865 22.6666 8.45456 23.1748 8.1733C24.8136 7.26243 26.4609 6.36298 28.0983 5.45069C30.2074 4.27427 32.3094 3.085 34.4171 1.90858C35.1942 1.47456 35.9799 1.0591 36.8373 0.593676L36.8387 0.59082Z" fill="#177DC3"/>
<path d="M55.9831 9.05035C55.9831 9.36444 55.9831 9.57717 55.9831 9.79132C55.9831 18.2989 55.9831 26.8066 55.9831 35.3142C55.9831 35.4327 55.9732 35.5526 55.9859 35.6711C56.0155 35.9695 55.8888 36.138 55.6283 36.2893C53.9881 37.2459 52.3591 38.2238 50.7259 39.1961C48.6703 40.4196 46.6176 41.6474 44.562 42.8696C43.3934 43.5648 42.2206 44.253 41.0478 44.9426C40.9901 44.9768 40.9197 44.9882 40.8184 45.0225V0.608398C45.8995 3.43666 50.9301 6.23779 55.9831 9.05035Z" fill="#177DC3"/>
<path d="M39.8131 70.5467H46.2599V72.3327C46.0868 72.3513 45.9079 72.3841 45.7291 72.3855C44.5803 72.3898 43.4314 72.3727 42.284 72.3927C41.0225 72.4141 39.7624 72.4669 38.5023 72.504C38.2714 72.5112 38.0405 72.504 37.8631 72.504C37.7913 72.4398 37.7716 72.4255 37.7575 72.407C37.7434 72.3898 37.7293 72.367 37.7279 72.3456C37.7167 72.2285 37.7012 72.11 37.7012 71.9929C37.7054 63.344 37.711 54.6964 37.7195 46.0474C37.7195 46.006 37.7547 45.9646 37.7927 45.8818H39.7905C39.8384 46.5614 39.8074 47.2439 39.8116 47.9234C39.8173 48.613 39.8116 49.3012 39.8116 49.9907V51.9867C39.8116 52.6762 39.8116 53.3644 39.8116 54.054C39.8116 54.7435 39.8116 55.4317 39.8116 56.1213V70.5481L39.8131 70.5467Z" fill="#177DC3"/>
<path d="M8.44982 45.8862H10.2224C10.2435 46.0676 10.2829 46.246 10.2829 46.4245C10.2872 49.0143 10.3041 51.6056 10.2745 54.1954C10.2646 55.0192 10.1393 55.8458 9.85493 56.6296C9.35934 57.9959 8.39914 58.8711 7.02641 59.2652C5.6199 59.6678 4.2162 59.6406 2.83221 59.1395C1.91143 58.8054 1.22577 58.183 0.742856 57.3335C0.26557 56.4969 0.0360792 55.5646 0.022 54.6166C-0.0174219 51.8126 0.00369698 49.0086 0.00369698 46.2046C0.00369698 46.1147 0.0332633 46.0262 0.0614218 45.8648C0.535891 45.8648 0.999098 45.8605 1.4609 45.8663C1.72136 45.8705 1.834 46.029 1.83259 46.2831C1.83259 46.4502 1.83259 46.6158 1.834 46.7828C1.83822 49.3727 1.834 51.9639 1.84948 54.5538C1.85511 55.5117 2.14937 56.3684 2.83503 57.0608C3.32217 57.5533 3.91913 57.8032 4.59634 57.8246C5.24821 57.846 5.89867 57.8646 6.53364 57.6105C7.32208 57.2935 7.88524 56.7724 8.15557 55.9572C8.32592 55.4418 8.44841 54.9164 8.4456 54.3596C8.43574 51.8169 8.4456 49.2742 8.44841 46.7314C8.44841 46.4744 8.44841 46.216 8.44841 45.8877L8.44982 45.8862Z" fill="white"/>
<path d="M59.066 63.5334C59.4531 63.2365 59.7221 63.0109 60.0107 62.8125C60.4246 62.5283 60.8864 62.3727 61.3933 62.3727C61.6044 62.3727 61.8142 62.3699 62.0254 62.3713C63.6375 62.3799 64.9666 63.3307 65.4565 64.8898C66.0619 66.8143 65.9789 68.7103 65.0637 70.5291C64.6005 71.4486 63.9261 72.191 62.9054 72.4194C61.8508 72.655 60.7653 72.7449 59.8164 72.0225C59.5404 71.8112 59.3053 71.5442 58.9984 71.253C58.9801 71.5942 58.9646 71.8669 58.9491 72.1638C58.4634 72.3238 57.9805 72.231 57.537 72.2252C57.4877 72.181 57.468 72.1667 57.4539 72.1481C57.4398 72.131 57.4215 72.1096 57.4215 72.0896C57.4131 67.8651 57.406 63.6405 57.4004 59.4174C57.4004 59.3018 57.4173 59.1861 57.43 59.0376C57.9692 58.902 58.4901 58.9905 59.0688 58.9877V63.5349L59.066 63.5334ZM58.9618 67.531C58.8942 68.1121 59.0167 68.7659 59.256 69.3827C59.4151 69.7925 59.6094 70.2536 59.9276 70.5234C61.0568 71.48 63.0391 71.4 63.7276 69.5654C64.1612 68.4119 64.2809 67.2226 63.9486 66.0291C63.8121 65.5379 63.5981 65.0339 63.2939 64.6328C62.2591 63.2693 60.1543 63.8747 59.4714 65.0511C59.042 65.7921 58.9364 66.6001 58.9618 67.531Z" fill="white"/>
<path d="M48.1308 50.5748V45.8877H49.5669C49.5823 45.9048 49.5978 45.922 49.6133 45.9405C49.6274 45.9591 49.6485 45.9776 49.6485 45.9976C49.6598 46.1861 49.6753 46.376 49.6753 46.5644C49.6767 50.7162 49.6753 54.8693 49.6753 59.0396C49.2121 59.2152 48.7742 59.0853 48.2716 59.1395C48.249 58.7469 48.2279 58.4029 48.204 57.996C48.0041 58.193 47.8365 58.3529 47.6774 58.5171C47.0917 59.1238 46.3793 59.398 45.543 59.4322C44.6265 59.4708 43.769 59.3508 43.0411 58.7327C42.2668 58.0745 41.6853 57.275 41.5023 56.2556C41.1728 54.4239 41.2207 52.6592 42.2372 50.9831C43.4917 48.913 46.613 48.7759 47.8619 50.3592C47.9041 50.4121 47.9675 50.4463 48.1294 50.5748H48.1308ZM43.0651 54.3254C43.0468 55.4204 43.2819 56.357 43.8648 57.2093C44.5054 58.1459 46.178 58.1473 46.782 57.6704C47.2522 57.3007 47.6324 56.851 47.8126 56.267C47.9168 55.9315 48.0041 55.5846 48.0505 55.2362C48.1857 54.2154 48.1603 53.2003 47.7436 52.2409C47.1832 50.946 46.1414 50.6077 44.8503 50.936C44.2491 51.0888 43.8732 51.5614 43.5705 52.0782C43.1538 52.7934 43.0468 53.5844 43.0637 54.3239L43.0651 54.3254Z" fill="white"/>
<path d="M55.9883 71.1268V72.2461C54.7381 72.8572 53.768 72.456 53.3681 71.1482C52.7684 71.7893 52.0658 72.2732 51.2239 72.4317C50.213 72.6216 49.1796 72.7401 48.2461 72.1005C47.2564 71.4209 46.8664 70.4444 47.0015 69.2751C47.1254 68.2029 47.7153 67.4619 48.722 67.0507C49.2486 66.8352 49.785 66.7195 50.3439 66.6581C51.0845 66.5768 51.8237 66.4854 52.5586 66.3669C53.2752 66.2512 53.5582 65.5188 53.2161 64.745C53.0626 64.3995 52.8064 64.1525 52.4643 64.0412C51.7913 63.8199 51.1127 63.7599 50.4002 63.9212C49.6667 64.0883 49.2683 64.5209 49.105 65.2304C49.0852 65.319 49.0571 65.406 49.0261 65.5203H47.6351C47.4239 64.6479 47.7928 63.5786 48.4911 63.1374C49.2331 62.6706 50.0257 62.3422 50.9296 62.3765C51.5815 62.4007 52.2362 62.3465 52.8768 62.5421C53.8989 62.8548 54.7071 63.3887 54.9352 64.5337C54.9802 64.7636 54.9957 65.002 54.9957 65.2361C55.0013 66.8509 54.9985 68.4642 54.9985 70.0789C54.9985 70.1974 54.9957 70.3159 54.9985 70.4344C55.0196 71.0312 55.0351 71.0454 55.649 71.0883C55.7391 71.094 55.8278 71.1068 55.9827 71.124L55.9883 71.1268ZM53.302 67.6047C52.5375 67.7375 51.8518 67.8388 51.1746 67.9787C50.6086 68.0958 50.0469 68.2357 49.4949 68.4056C48.8867 68.5927 48.6122 69.3593 48.7009 69.9076C48.7882 70.4501 49.3922 71.0183 49.961 71.0797C50.7198 71.1611 51.4491 71.0354 52.1264 70.6757C52.7881 70.3244 53.2034 69.7648 53.2921 69.0124C53.347 68.5498 53.302 68.0758 53.302 67.6047Z" fill="white"/>
<path d="M31.2457 59.4255C30.7008 59.4626 30.0616 59.3913 29.452 59.0914C28.1708 58.4604 27.4893 57.3696 27.1908 56.0162C26.8952 54.6756 26.967 53.3364 27.4414 52.0401C27.9131 50.7523 28.7522 49.8 30.0658 49.3788C31.7891 48.8249 33.3435 49.2032 34.6669 50.4353C35.1695 50.9036 35.4736 51.5375 35.6454 52.2142C36.072 53.8932 35.9932 55.5351 35.2625 57.1226C34.5458 58.6817 33.3322 59.4369 31.6427 59.4255C31.5484 59.4255 31.4554 59.4255 31.2457 59.4255ZM34.184 54.0217C34.2262 53.3421 34.0671 52.5826 33.7109 51.8744C33.342 51.1378 32.7282 50.7523 31.9158 50.7023C31.706 50.6895 31.4934 50.7023 31.2837 50.6966C30.3291 50.6695 29.6674 51.1349 29.2858 51.9858C28.6311 53.4478 28.5213 54.9454 29.1338 56.4573C29.4337 57.1983 29.9307 57.748 30.7318 57.9122C31.0711 57.9821 31.4301 57.9793 31.7793 57.965C32.5916 57.9321 33.2013 57.5524 33.58 56.8114C34.008 55.9748 34.1967 55.081 34.184 54.0217Z" fill="white"/>
<path d="M74.6357 65.3792H73.0912C73.0575 65.255 73.0279 65.1465 72.9997 65.0365C72.8646 64.5126 72.5365 64.1685 72.0409 63.9872C71.406 63.7545 70.7485 63.763 70.1036 63.8858C69.6038 63.9815 69.18 64.2599 69.0885 64.8252C68.9942 65.3992 69.242 65.8232 69.8967 66.0773C70.5246 66.3215 71.1891 66.4685 71.8368 66.657C72.3521 66.8069 72.8772 66.9254 73.3799 67.1081C74.7244 67.5964 75.2623 68.7228 74.8779 70.1848C74.5175 71.5539 73.5685 72.3178 72.2366 72.4919C71.2708 72.619 70.2754 72.6461 69.3082 72.382C67.9734 72.0194 67.3174 70.93 67.1048 69.7122C67.0822 69.5794 67.1132 69.4381 67.1202 69.2582H68.6324C68.6774 69.3524 68.7563 69.451 68.7732 69.558C68.8914 70.3333 69.3588 70.773 70.0769 70.9672C70.9146 71.1942 71.741 71.1713 72.5309 70.7716C73.0955 70.486 73.3278 70.0934 73.2785 69.5295C73.2306 68.9812 72.8927 68.6814 72.4056 68.5429C71.5313 68.2931 70.6485 68.0718 69.777 67.8162C69.3983 67.7049 69.0223 67.5664 68.6647 67.3951C67.4215 66.7969 67.185 65.8046 67.4539 64.544C67.6989 63.3933 68.9449 62.4738 70.0628 62.3924C70.6682 62.3482 71.2905 62.3125 71.8875 62.3967C73.5432 62.6323 74.44 63.5717 74.6864 65.1151C74.6963 65.1779 74.6625 65.2478 74.6386 65.3763L74.6357 65.3792Z" fill="white"/>
<path d="M12.745 49.4684H14.2247V50.6876C14.6175 50.3664 14.9259 50.0766 15.2708 49.8425C16.3648 49.0972 17.5742 49.0701 18.7639 49.467C19.862 49.8339 20.3097 50.779 20.4111 51.8869C20.4604 52.428 20.4308 52.9777 20.4322 53.523C20.4336 55.1378 20.4336 56.7511 20.4322 58.3658C20.4322 58.5956 20.4125 58.8269 20.3999 59.0896H18.8497V58.3601C18.8497 56.7696 18.861 55.1792 18.8441 53.5887C18.8385 53.0947 18.7892 52.5965 18.7061 52.1096C18.5766 51.3501 17.9487 50.8461 17.2489 50.8247C16.3887 50.799 15.6383 50.9403 15.0315 51.6314C14.5851 52.1382 14.3641 52.6978 14.3641 53.3689C14.3669 55.0307 14.3585 56.6925 14.3542 58.3529C14.3542 58.5842 14.3542 58.8155 14.3542 59.0839H12.7717C12.645 58.5657 12.6197 50.2708 12.7464 49.4641L12.745 49.4684Z" fill="white"/>
<path d="M23.2094 50.8844C22.749 50.863 22.3815 50.8473 21.9746 50.8287V49.5752H23.1713C23.1896 49.3268 23.2122 49.124 23.2164 48.9227C23.2234 48.5201 23.1868 48.1132 23.2248 47.7135C23.3347 46.577 23.7936 45.946 25.1199 45.7219C25.2804 45.6947 25.4465 45.709 25.6099 45.7076C25.8633 45.7061 26.1153 45.7076 26.4138 45.7076V47.181C26.2378 47.3637 25.9886 47.268 25.7661 47.288C25.2452 47.3337 24.9847 47.5365 24.9383 48.0604C24.8975 48.5258 24.9298 48.9984 24.9298 49.5252H26.3448C26.5475 49.9592 26.4349 50.3561 26.4448 50.7688C25.9633 50.9701 25.4592 50.7688 24.9453 50.9115C24.8566 51.7981 24.9172 52.6933 24.9059 53.5842C24.8946 54.5093 24.9031 55.4345 24.9031 56.3596V59.0865H23.2403C23.1854 56.3696 23.2403 53.6555 23.2079 50.8844H23.2094Z" fill="white"/>
</g>
<defs>
<clipPath id="clip0_4695_28446">
<rect width="75" height="72" fill="white" transform="translate(0 0.589844)"/>
</clipPath>
</defs>
</svg>
